<?xml version="1.0" encoding="utf-8"?>
<!-- Generator: Adobe Illustrator 21.1.0, SVG Export Plug-In . SVG Version: 6.00 Build 0)  -->
<svg version="1.1" id="Disney_Jr" xmlns="http://www.w3.org/2000/svg" xmlns:xlink="http://www.w3.org/1999/xlink" x="0px" y="0px"
	 viewBox="0 0 125 125" style="enable-background:new 0 0 125 125;" xml:space="preserve">
<style type="text/css">
	.st0{fill:#FFFFFF;}
</style>
<g>
	<path class="st0" d="M70.9,54.8c0.2,0.9,1,1.6,1.9,1.7c0.2,0,0.5,0,0.8,0c-0.4,0.5-0.9,1.2-1,1.9c-0.3,2.1,1.1,4,3,4.3
		c2.1,0.3,4-1.1,4.3-3c0.1-0.8,0-1.5-0.3-2.2c0.2,0.1,0.4,0.2,0.8,0.2c1.3,0.2,2.5-0.6,2.7-1.9c0.2-1.3-0.6-2.5-1.9-2.7
		c-1.3-0.2-2.5,0.6-2.7,1.9c-0.1,0.3,0,0.8,0.1,1.1c-0.4-0.3-1-0.5-1.6-0.6c-0.6-0.1-1.2,0-1.7,0.1c0.2-0.3,0.3-0.6,0.4-1
		c0.2-1.3-0.6-2.5-1.9-2.7c-1.3-0.2-2.5,0.6-2.7,1.8C70.9,53.6,70.8,54.3,70.9,54.8L70.9,54.8L70.9,54.8z"/>
	<g>
		<path class="st0" d="M89,72.8c0,1.4,1.1,2.4,2.4,2.4c1.3,0,2.4-1,2.4-2.4c0-1.4-1-2.6-2.4-2.6C89.9,70.3,89,71.4,89,72.8L89,72.8z
			 M101.8,72.9c0,5.7-5.1,8.9-10.5,8.9c-5.4,0-10.5-3.1-10.5-8.9c0-6,4.8-9.3,10.5-9.3C97,63.7,101.8,66.8,101.8,72.9L101.8,72.9z"
			/>
		<path class="st0" d="M110.5,66.4c1.5-2.3,3.2-2.8,6-2.7v8c-0.8-0.3-1.5-0.5-2.6-0.5c-1.8,0.1-3.3,1.4-3.3,3.6v6.7h-8.4V64.1h8.2
			v2.3H110.5z"/>
	</g>
	<path class="st0" d="M40,64v8.2c0,1,0.1,2.1,1.4,2.1c1.4,0,1.4-1.1,1.4-2.1V64h8.3v9.7c0,5.5-4.8,7.9-9.7,7.9s-9.7-2.5-9.7-7.9V64
		H40L40,64z"/>
	<g>
		<path class="st0" d="M74.5,69.8c0.4,0,0.8,0.3,0.8,0.8c0,0.4-0.3,0.8-0.8,0.8c-0.4,0-0.8-0.3-0.8-0.8
			C73.6,70.3,73.9,69.8,74.5,69.8L74.5,69.8z M78,69.8c0.4,0,0.8,0.3,0.8,0.8c0,0.4-0.3,0.8-0.8,0.8s-0.8-0.3-0.8-0.8
			C77.3,70.3,77.6,69.8,78,69.8L78,69.8z M72,81.3h8.4V68.9H72V81.3L72,81.3z M72,64v4.5h8.4V64H72L72,64z"/>
		<path class="st0" d="M30.6,60.6c-1.7,1.2-4.1,1.9-6.7,1.9l0,0c-0.4,0-1,0-1.4-0.1v9c-0.1,1.6-1.7,1.7-2.4,1.7
			c-1.6,0-2.1-1.2-2.3-1.6L14,78.6c1.7,1.7,5,3.3,9,3.2c4.9-0.2,8.3-3.6,8.3-8.4V60.1C31,60.3,30.8,60.4,30.6,60.6L30.6,60.6z"/>
	</g>
	<path class="st0" d="M65.5,63.6c-1.1,0-1.9,0.2-2.7,0.5c-0.2,0.6-0.3,1.2-0.5,1.6c-0.1,0.3-0.2,0.9-0.3,1.3c0,0.3-0.1,0.5-0.1,0.8
		c-0.1,0.2-0.1,0.3-0.2,0.5c-0.1,0.1-0.2,0.1-0.3,0.1c-0.1,0-0.1,0-0.2,0c-0.5,0-1-0.3-1.4-0.8c-0.4-0.4-0.6-1.1-0.8-1.7v-0.1
		c0-0.5,0.1-1.3,0.2-1.9h-7.3v17.3h8.4v-7.1c0-1,0-2.5,1.4-2.5c1.4,0,1.4,1.4,1.4,2.5v7.1h8.4V70.6C71.5,66.8,69.8,63.6,65.5,63.6
		L65.5,63.6z"/>
	<path class="st0" d="M35,52.7c-0.9,0-0.9,3.5-0.9,4.8c-0.1,2.9,0.3,3.2,1.2,3.2c0.6,0,1-0.1,0.9-2.5C35.9,53.5,35.6,52.7,35,52.7
		L35,52.7z"/>
	<path class="st0" d="M35.7,46.6c-0.9,0.5-1.8,1.3-2.5,2.1c0-0.1,0-0.2,0-0.3C33.2,47.8,34.1,46.9,35.7,46.6L35.7,46.6z M35.6,49.9
		c-0.4,0-0.9-0.1-1.1-0.1c0.9-1,2.9-2.7,3.9-2.7c0.6,0,0.8,0.5,0.8,0.8C39.1,48.9,36.7,49.9,35.6,49.9L35.6,49.9z M35.4,51.4
		c1.9,0,5-2.2,5-4c0-0.8-0.4-1.2-1.5-1.4c-0.4-0.4-1.1-0.9-2.1-0.9c-3,0-4.9,2.4-4.9,3.7c0,0.4,0.1,1.1,0.5,1.5c0,1,0.2,1.3,0.6,1.3
		c0.3,0,0.6-0.2,0.8-0.4C34.3,51.3,34.7,51.4,35.4,51.4L35.4,51.4z"/>
	<path class="st0" d="M45.2,53.3c0-0.8-2.1-0.8-3.2-0.8c-0.9,0-5.3,0.1-5.3,2.6c0,1.6,2.5,1.3,4.1,1.4c1.3,0.1,2.9,0.5,2.9,1
		c0,1-3.6,1.4-4.3,1.4c-1.5,0-1.5-0.4-1.5-0.6c0-0.2,0.2-0.5,0.9-0.6c0.5,0,1.7,0.8,2.5,0.8s1.5-0.3,1.5-0.8c0-0.6-2.7-1-3.5-1
		c-0.9,0-2.1,0.3-2.1,1.6c0,0.6,1.1,2.3,4.2,2.3c3,0,3.8-1.7,3.8-2.6c0-2.2-2.1-2.4-3.9-2.6c-1.3-0.1-2.8-0.2-2.8-0.4
		C38.6,53.9,45.2,54.6,45.2,53.3L45.2,53.3z"/>
	<path class="st0" d="M50.3,51.5c-0.2,0-0.3,0.2-0.3,0.5c0,0.9,1.2,3.8,1.2,4.9c0,0.2,0,0.6-0.2,0.8c-0.3,0.1-2.7-4.3-3.8-4.4
		c-1.1-0.1-1.6,4.3-1.6,5.5c0,1.1,0.2,1.8,1,1.8c1.2,0,0.5-4.4,1.1-4.4c0.3,0,2.4,4.1,3.5,4.1c1.2,0,1.8-1.7,1.8-2.9
		C53,54.6,51.3,51.5,50.3,51.5L50.3,51.5z"/>
	<g>
		<path class="st0" d="M58.5,58.3c-0.4,0-2.8,0.5-2.9,0.4c-0.1-0.1,0.1-1.5,0.4-1.6c0.3-0.1,2.2-0.1,2.5-0.1c0.9,0,0.6-1.2,0.2-1.3
			c-0.2,0-1.9,0-2.1-0.2c-0.1-0.1,0-1,0.2-1c0.4-0.1,2.9-0.2,3.1-0.3c0.3-0.1,0.5-0.2,0.6-0.5c0.1-0.2-0.9-1.4-2.1-1.3
			c-2.1,0.2-4.6,0.2-4.6,0.9s1.2,0.9,1.3,1.1c0,0.2-0.1,0.9-0.2,1c-0.1,0.2-1,0.3-1,0.9c0,0.1,0.2,0.3,0.2,0.5
			c-0.1,0.5-0.5,1.6-0.5,2.1c0,0.6,0.5,2.2,1.8,2.2c2.2-0.1,4.1-1.6,4.2-1.8C59.5,58.8,58.9,58.3,58.5,58.3L58.5,58.3z"/>
		<path class="st0" d="M17.8,54.8c-4.4,0.2-4.8,1-4.8,1.1c0,0.4,1.8,1.9,4.8,3C17.7,57.7,17.7,56,17.8,54.8L17.8,54.8z M19.2,62.7
			c-1.2,0-1.4-1-1.4-1.9c-3.5-1.5-5.7-4.1-5.7-5.2c0-1.4,2.9-2.6,5.7-3c0.2-4.1,0.9-4.1,1.2-4.1c0.8,0,1.2,1.3,1.3,3.9h0.1
			c6.7,0,7.2,2.4,7.2,3c0,0.5-0.3,1-0.5,1.3c-0.3,0.3-0.6,0.5-0.9,0.5l0,0l0,0c-0.1,0-0.2,0-0.3,0c-0.5,0-1.1,0-1.1-0.4
			c0-0.3,0.2-0.4,0.4-0.6c0.1-0.1,0.3-0.3,0.3-0.4c-0.1-0.3-2.5-1-4.4-1l0,0c-0.2,0-0.4,0-0.6,0c0,1.6,0.1,3.8,0.1,5
			c0.9,0.1,1.7,0.2,2.6,0.2l0,0c0.9,0,2.9-0.1,4.8-0.9c1.8-0.8,2.7-1.9,2.7-3.6c0-2.3-2.2-4.9-5.7-7c-3.7-2.2-8.1-3.5-12-3.5l0,0
			c-1.5,0-2.5,0.1-2.7,0.3c0,0,0,0,0.1,0.1s0.3,0.2,0.3,0.4c0,0.1,0,0.2-0.1,0.2c-0.1,0.1-0.4,0.2-0.8,0.2l0,0c-0.3,0-0.8,0-1-0.3
			c-0.1-0.1-0.2-0.3-0.2-0.4c0-0.5,0.3-0.9,0.6-1.2c0.1-0.1,0.1-0.1,0.2-0.2c0.6-0.6,3.6-0.9,4.8-0.9c0.1,0,0.3,0,0.4,0
			c4.1,0,8.6,1.5,12.6,4.2c3.8,2.5,6,5.6,6,8c0,1.8-1,3.6-2.7,4.8c-1.7,1.2-4.1,1.8-6.6,1.8l0,0c-1.2,0-2.4-0.1-3.5-0.4
			C20.2,62.5,19.6,62.7,19.2,62.7L19.2,62.7L19.2,62.7z"/>
	</g>
	<path class="st0" d="M67.1,54.9c-0.2,0-1.2,1.2-2.7,3.7c0.8-0.1,1.6-0.5,2.2-1.1c0.3-0.4,0.9-1,0.9-1.7
		C67.5,54.9,67.2,54.9,67.1,54.9v-0.2V54.9L67.1,54.9z M61.1,68.2c-0.8,0-1.7-1.1-1.7-2.1c0-1.8,0.9-4.6,1.4-6.4
		c0-0.1,0.1-0.3,0.1-0.4c-0.2-0.5-0.4-1.2-0.4-1.7c0-2.3,2.1-4.6,2.7-5.3c0.1-0.1,0.2-0.1,0.2-0.1c0.1,0,0.2,0.1,0.3,0.2
		c0.1,0.2,0.2,0.8,0,1.1c-0.1,0.1-0.2,0.4-0.4,0.8c-0.4,0.8-1.2,2.2-1.2,2.6V57c0.9-1.1,3.3-4,4.8-4.1l0,0c0.6,0,1.9,0.8,1.9,3
		c0,2.4-2.9,5.1-5.4,5.1c-0.1,0-0.1,0-0.2,0c-0.3,1.1-1,3.3-1.4,4.6c-0.1,0.4-0.2,0.9-0.3,1.3c-0.1,0.8-0.2,1.1-0.4,1.2
		C61.2,68.1,61.1,68.2,61.1,68.2L61.1,68.2z"/>
</g>
</svg>
